<?xml version="1.0" standalone="no"?>
<!DOCTYPE svg PUBLIC "-//W3C//DTD SVG 20010904//EN"
 "http://www.w3.org/TR/2001/REC-SVG-20010904/DTD/svg10.dtd">
<svg version="1.0" xmlns="http://www.w3.org/2000/svg"
 width="219.000000pt" height="219.000000pt" viewBox="0 0 219.000000 219.000000"
 preserveAspectRatio="xMidYMid meet">
<metadata>
Created by potrace 1.14, written by Peter Selinger 2001-2017
</metadata>
<g transform="translate(0.000000,219.000000) scale(0.100000,-0.100000)"
fill="#000000" stroke="none">
<path d="M257 1527 c-93 -41 -129 -103 -131 -227 -2 -47 1 -97 5 -112 6 -22 2
-31 -27 -55 -27 -22 -35 -36 -36 -66 -1 -20 1 -40 5 -43 3 -3 39 16 79 43 40
27 79 52 86 57 8 5 12 -2 12 -23 0 -27 -10 -37 -90 -91 -79 -53 -90 -64 -90
-90 l0 -30 50 20 c27 11 66 26 86 35 46 19 44 20 44 -12 0 -26 -7 -31 -88 -64
-85 -35 -87 -36 -90 -71 l-3 -36 41 9 c22 5 57 12 78 15 20 3 42 7 47 7 6 1
11 -10 13 -24 3 -22 -2 -27 -30 -34 -49 -11 -59 -13 -105 -20 -37 -5 -43 -10
-43 -31 l0 -24 310 0 310 0 0 25 c0 21 -5 25 -32 26 -18 0 -44 2 -58 4 -14 1
-78 6 -144 9 -65 4 -123 9 -127 12 -5 3 -9 90 -9 194 l0 188 48 -14 c26 -8 49
-15 52 -15 3 0 21 -4 40 -9 19 -5 49 -11 65 -14 17 -3 61 -14 98 -25 l68 -19
-3 35 c-3 32 -7 36 -53 53 -27 10 -99 37 -160 60 -60 23 -136 50 -168 62 l-58
20 -49 -41 c-27 -23 -51 -41 -54 -41 -16 0 -2 19 32 44 35 27 37 31 39 92 2
66 20 111 55 133 11 7 54 12 98 12 136 0 166 -34 163 -184 l-2 -88 42 -19 c23
-10 43 -18 44 -16 2 2 4 56 4 122 2 130 -8 167 -55 217 -40 43 -91 59 -184 61
-63 2 -94 -3 -125 -17z"/>
<path d="M2045 1381 l-31 -6 1 -215 0 -215 38 -3 c20 -2 38 0 38 5 7 46 2 426
-6 432 -5 4 -24 5 -40 2z"/>
<path d="M1009 1361 c-23 -19 -24 -22 -23 -200 1 -239 -15 -223 228 -219 l179
3 19 26 c11 15 21 44 21 65 2 38 1 39 -35 42 -29 2 -38 -1 -39 -12 -1 -9 -2
-22 -3 -28 -1 -10 -37 -13 -146 -13 l-145 0 -2 138 -1 137 104 1 c57 0 120 1
139 1 19 0 39 -1 44 -1 4 -1 8 -13 7 -28 -1 -25 3 -28 37 -31 36 -3 40 0 40
33 0 44 -5 58 -28 80 -24 25 -27 25 -198 25 -157 0 -177 -2 -198 -19z"/>
<path d="M1615 1371 c-12 -5 -27 -16 -34 -25 -16 -20 -19 -118 -3 -124 19 -6
14 -22 -12 -34 -68 -30 -63 -192 7 -230 23 -12 163 -20 209 -11 14 3 35 13 46
23 19 18 20 18 38 -1 22 -25 36 -24 52 2 12 19 10 25 -15 53 -24 26 -28 37
-23 66 9 57 2 72 -34 68 -25 -2 -32 -8 -36 -30 l-5 -27 -43 39 c-24 22 -59 52
-78 68 -22 19 -36 39 -38 60 -5 33 7 43 59 49 45 5 60 -10 64 -62 1 -12 63
-14 72 -2 10 14 -7 88 -25 105 -18 18 -167 28 -201 13z m77 -254 c20 -17 51
-44 69 -59 l32 -27 -27 -11 c-43 -16 -132 -13 -150 6 -22 22 -24 86 -4 112 17
20 41 14 80 -21z"/>
<path d="M432 998 c-22 -34 -20 -53 6 -63 11 -4 24 2 37 18 20 25 48 27 39 3
-3 -9 6 -16 27 -20 18 -3 33 -5 34 -4 7 8 16 72 10 66 -5 -5 -14 1 -22 12 -11
15 -26 20 -63 20 -43 0 -50 -3 -68 -32z"/>
<path d="M393 923 c-13 -3 -22 -12 -22 -24 -1 -10 -1 -28 -2 -39 -1 -34 43
-85 75 -87 37 -3 53 10 51 39 -1 19 -9 24 -40 28 -37 5 -38 6 -22 22 12 12 16
25 11 43 -6 25 -9 26 -51 18z"/>
<path d="M578 923 c-22 -5 -22 -16 -3 -53 14 -27 14 -29 -5 -27 -11 1 -20 6
-20 12 0 5 -12 -3 -26 -19 -26 -27 -26 -28 -8 -46 29 -28 80 -16 101 24 21 38
28 86 14 86 -6 0 -11 7 -11 15 0 15 -9 17 -42 8z"/>
<path d="M990 835 c0 -40 2 -45 23 -44 17 1 18 2 4 6 -19 5 -17 30 2 26 16 -4
13 14 -4 21 -8 3 -12 12 -9 21 3 8 1 15 -5 15 -6 0 -11 -19 -11 -45z"/>
<path d="M1045 868 c-7 -19 -1 -77 8 -77 28 -3 89 2 74 6 -19 5 -17 30 2 26 6
-2 11 2 11 7 0 6 -7 10 -15 10 -8 0 -15 7 -15 16 0 8 4 13 9 9 5 -3 12 -1 16
5 7 12 -14 13 -32 2 -6 -4 -10 -22 -8 -39 2 -27 -1 -33 -16 -33 -19 0 -23 13
-19 58 2 24 -8 30 -15 10z"/>
<path d="M1157 873 c-13 -13 -7 -81 7 -86 18 -7 42 18 26 28 -5 3 -10 1 -10
-4 0 -6 -4 -11 -8 -11 -4 0 -6 16 -4 35 4 33 5 34 19 18 14 -17 14 -17 9 0 -3
10 -6 21 -6 23 0 7 -26 5 -33 -3z"/>
<path d="M1222 835 c0 -25 5 -45 9 -45 4 0 9 20 11 45 2 32 -1 45 -10 45 -8 0
-12 -14 -10 -45z"/>
<path d="M1269 878 c-6 -17 -3 -88 3 -88 4 0 8 8 8 17 0 15 2 14 15 -3 14 -18
15 -16 13 26 -2 33 -7 46 -20 48 -10 2 -18 2 -19 0z m26 -17 c3 -5 1 -12 -5
-16 -5 -3 -10 1 -10 9 0 18 6 21 15 7z"/>
<path d="M1335 872 c-18 -12 -12 -72 8 -83 21 -12 30 5 25 52 -3 33 -15 44
-33 31z m21 -42 c1 -16 -2 -30 -7 -30 -5 0 -9 14 -9 30 0 17 3 30 8 30 4 0 8
-13 8 -30z"/>
<path d="M1390 873 c-3 -16 -3 -48 0 -70 1 -16 3 -15 10 2 7 17 9 17 9 3 1
-10 6 -18 11 -18 14 0 13 77 -2 86 -7 4 -8 3 -4 -4 4 -7 3 -12 -3 -12 -5 0
-12 6 -14 13 -4 10 -6 10 -7 0z"/>
<path d="M1447 873 c-9 -19 -7 -82 2 -88 7 -4 11 11 11 44 0 48 -4 61 -13 44z"/>
<path d="M1474 867 c-11 -31 0 -72 20 -72 11 0 22 7 24 15 5 13 3 13 -11 1
-15 -12 -17 -10 -17 25 1 37 1 38 16 19 16 -20 16 -20 12 0 -4 24 -36 32 -44
12z"/>
<path d="M1534 865 c-4 -8 1 -24 10 -34 20 -22 21 -32 1 -25 -8 4 -15 2 -15
-4 0 -20 30 -21 40 -2 8 16 6 23 -9 37 -23 19 -17 40 7 21 13 -11 14 -11 10 2
-7 21 -37 25 -44 5z"/>
<path d="M1620 833 c0 -24 5 -43 10 -43 6 0 10 8 10 17 0 15 2 14 15 -3 14
-18 14 -17 13 11 -1 50 -8 64 -28 62 -17 -1 -20 -9 -20 -44z m35 9 c-8 -8 -25
10 -19 20 4 6 9 5 15 -3 4 -7 6 -15 4 -17z"/>
<path d="M1683 833 c0 -37 3 -43 20 -43 20 0 21 0 1 15 -10 8 -17 15 -14 15
36 8 43 7 47 -11 3 -10 14 -19 24 -19 19 0 35 17 24 28 -3 3 -10 0 -15 -8 -14
-23 -25 16 -12 43 10 20 11 20 11 3 1 -15 4 -17 12 -9 15 15 3 33 -22 33 -13
0 -19 -7 -19 -24 0 -20 -4 -22 -25 -18 -24 4 -25 6 -9 23 15 17 15 18 -4 16
-16 -1 -19 -8 -19 -44z"/>
<path d="M1804 851 c3 -18 6 -40 6 -47 0 -17 16 -19 17 -1 0 6 3 24 6 39 3 15
1 30 -4 33 -5 4 -9 0 -9 -7 0 -10 -3 -9 -11 2 -8 11 -9 7 -5 -19z"/>
<path d="M1857 873 c-14 -13 -7 -74 9 -80 19 -7 41 11 25 21 -6 4 -11 2 -11
-4 0 -6 -4 -9 -9 -6 -4 3 -7 17 -5 32 3 30 14 46 14 20 0 -9 4 -15 10 -11 5 3
7 12 3 20 -5 16 -25 20 -36 8z"/>
<path d="M1969 878 c-7 -13 -5 -88 2 -88 5 0 9 20 9 45 0 37 -5 55 -11 43z"/>
<path d="M1993 836 c0 -39 2 -43 23 -43 21 0 24 4 24 38 0 21 -5 41 -11 45 -8
4 -9 -1 -5 -17 l6 -24 -11 23 c-18 33 -26 27 -26 -22z"/>
<path d="M2054 866 c-3 -8 -4 -27 -2 -43 2 -20 8 -28 23 -28 22 0 28 26 7 33
-8 2 -10 -3 -6 -15 5 -14 4 -15 -4 -4 -6 8 -9 23 -6 34 4 23 14 36 14 19 0 -7
4 -12 10 -12 5 0 7 7 4 15 -8 19 -33 20 -40 1z"/>
<path d="M1910 831 c0 -30 4 -40 20 -44 11 -3 20 -1 20 4 0 5 -6 9 -14 9 -10
0 -13 11 -11 35 1 19 -2 35 -7 35 -4 0 -8 -17 -8 -39z"/>
</g>
</svg>
